<svg xmlns="http://www.w3.org/2000/svg" width="48" height="47" viewBox="0 0 48 47"><g><g><path fill="#fff" d="M40.476 6.775l1.764.062c.486 0 1.128-.044 1.511.063h2.394c.636.227 1.127.71 1.196 1.505h-.063l-.063.375h-.062v.189l-.127.062v.126l-1.511 1.44-4.41 4.451h-6.738l-1.512 1.566-.315.251c-.438.603-.992 1.05-1.512 1.567l-2.078 2.132c-.42.3-.774.644-1.134 1.002l-3.212 3.259h-.19l-.062.125-.315.063v.063c-.366.116-1.025-.136-1.197-.251l-.315-.376-.126-.063-.063-.25h-.063v-.126h-.063v-.125h-.063v-.752h.063l.063-.25h.063v-.189l.126-.062v-.126h.063c.09-.11.143-.15.19-.313h.125c.045-.194.123-.267.315-.314v-.125h.126v-.125h.126v-.126h.126v-.125h.126c.046-.173.018-.14.189-.188v-.125h.126v-.126h.126v-.125h.126v-.125h.126v-.125h.126c.045-.174.018-.141.189-.189v-.125h.126v-.125h.126v-.126h.126v-.126h.126v-.125h.126c.045-.173.017-.14.189-.187v-.126h.126v-.125h.126v-.126h.125v-.125h.127v-.125h.125c.046-.173.018-.14.19-.188v-.126h.125v-.125h.126c.083-.31.658-.717.882-.94v-.063l2.079-2.006c.217-.215.575-.732.882-.814v-.125h.125v-.125h.126v-.126h.126c.046-.173.018-.14.19-.189v-.124h.125v-.126h.126v-.125h.126v-.126h.126v-.125c.174-.046.141-.018.19-.188h.125v-.125h.126v-.126h.126v-.125h.126c.124-.694.063-1.648.063-2.444V6.085c.153-.088.206-.234.315-.312.537-.387.926-.86 1.386-1.317l3.212-3.134.882-.94h.126c.02-.042.042-.083.063-.125h.126l.063-.126c.106-.065.602-.194.818-.125V.07h.19V.13h.125l.063.126h.19v.062l.377.314v.125h.063v.126h.063v.188h.063v1.065c.108.387-.048 1.044.063 1.442h.063v3.196zm-11.59 2.758l-.566-.188v-.063l-.378-.063v-.062h-.126v-.063l-.378-.063V8.97h-.189v-.063l-.44-.062V8.78l-.442-.062v-.063l-2.456-.439h-.819v-.062c-.327-.091-1.77-.006-2.015.062h-.82v.063h-.503v.062h-.44v.064h-.316v.062h-.378v.062h-.252v.064l-.567.062-2.267.752v.063l-.252.063v.062h-.126v.063h-.189v.063l-.378.125v.063h-.126v.062h-.126v.063a96.1 96.1 0 0 1-.378.125l-.063.126-.377.125-.064.125-.251.063-.064.125a491 491 0 0 1-.251.063v.063l-.19.062-.062.125h-.126l-.126.189h-.126l-.063.125h-.126l-.126.188h-.126l-.126.188h-.126l-.189.25h-.126l-.315.377h-.126l-.44.501-1.072 1.003v.126l-.378.313v.126l-.251.187v.126l-.19.125v.125c-.062.043-.125.084-.188.126v.125l-.126.063v.125l-.19.125v.126l-.125.062v.126l-.126.063-.063.25-.126.063-.063.25-.126.063-.126.376-.126.063v.125h-.063v.125h-.063v.126h-.063v.125h-.063v.126H6.78l-.126.375H6.59v.188h-.063v.126h-.063v.125h-.063v.125h-.063v.189h-.063v.125h-.063l-.063.376h-.063v.125h-.063l-.63 2.257-.126 1.128h-.063v.501h-.063v.815h-.063c-.09.325-.005 1.762.063 2.005v.815h.063v.502h.063v.438h.063v.314h.063v.376h.063v.25h.063v.314h.063v.25h.063l.063.44h.063v.187h.063v.25h.063v.189h.063v.188h.063v.188h.063v.125h.063l.063.377h.063v.125h.063v.188h.063l.063.25h.063v.126h.063v.188h.063l.126.376h.063v.125h.063v.126h.063l.126.376.126.062.126.376.126.063c.02.084.042.167.063.25l.126.063c.02.084.042.168.063.251l.126.062v.126h.063c.02.063.042.125.063.188l.126.063v.125l.189.126v.125l.189.125v.126l.189.125v.125l.251.188v.126l.378.313v.125l1.071 1.003.441.501h.126l.315.376h.126l.189.251h.126l.126.188h.126l.126.189h.126l.126.187h.126l.063.126h.126l.063.125.189.063v.063a491 491 0 0 1 .251.062l.064.126.251.062.064.125.377.125.063.126h.126v.063h.126v.063h.126v.062h.126v.063h.126v.062h.126v.063l.378.125v.063l.315.063v.063h.126v.062h.189v.063h.126v.063c.126.02.252.04.378.062v.063h.126v.063l.567.125v.063h.252v.062h.189v.063l.44.063v.062h.252v.063l.567.063v.062h.378v.063h.315v.062h.441v.063l1.323.063v.063c.327.09 1.77.006 2.015-.063l1.323-.063v-.063h.44v-.062h.316v-.063h.378v-.062h.252v-.063l.566-.063v-.062h.19v-.063h.251v-.063h.19v-.062h.251v-.063h.19v-.063h.188v-.062h.189v-.063h.126v-.063l.378-.062v-.063h.126v-.063h.189v-.062l.252-.063v-.063h.126v-.063h.189v-.063l.378-.125v-.062h.126v-.063h.126v-.062a96.1 96.1 0 0 1 .378-.126l.063-.126.377-.125.063-.125.252-.062.063-.126a491 491 0 0 1 .252-.062l.063-.126h.126v-.063l.19-.062.062-.126h.126l.063-.125.19-.062.125-.189h.126l.126-.188h.126l.189-.25h.126l.315-.377h.126l.63-.69c.294-.27.588-.542.881-.814v-.125c.126-.104.252-.21.378-.313v-.126l.252-.188v-.125l.19-.125v-.126l.188-.125.063-.188.126-.063v-.125l.126-.063.063-.188h.063v-.126l.126-.062.063-.25.126-.063.063-.25.126-.064.126-.376.126-.062v-.126h.063v-.125h.063v-.125h.063v-.126h.063v-.125h.063v-.125h.063l.126-.377h.063v-.187h.063c.02-.084.042-.167.063-.251h.063l.756-2.257c.02-.188.042-.376.063-.563h.063v-.251h.063v-.376h.062v-.314h.064l.125-1.128v-.627h.063c.092-.325.006-1.761-.063-2.005l-.062-1.316h-.063v-.44h-.064v-.312h-.062v-.376h-.063l-.063-.564h-.063v-.25h-.063l-.063-.44h-.063v-.188h-.063v-.25h-.063v-.189h-.063v-.187h-.063v-.189h-.063v-.125h-.063l-.063-.376h-.063l-.19-.564c1.31.006 3.024.147 4.032-.188l.819-.126v-.062c.063-.021.126-.041.188-.063v-.063c.123-.03.085.037.127.063.216.195.196.639.315.94.28.714.398 1.609.63 2.382l.062.815h.063v.438h.063v.627h.063v.815c.134.483.137 1.9 0 2.381v.816h-.063v.626h-.063v.439h-.063v.438c-.087.295-.162.718-.252 1.003v.314h-.063v.25H43.5v.25h-.062v.251h-.064v.251h-.063v.25h-.063v.189h-.062v.188h-.063v.189h-.064l-.063.438h-.062v.126h-.063l-.127.564h-.062v.125h-.063v.188h-.063l-.063.312h-.063v.126h-.063v.189h-.063l-.126.375h-.063v.125h-.063v.189h-.063l-.126.376h-.063v.125h-.063l-.126.376-.126.063v.125h-.063v.126h-.063v.125h-.063v.125l-.126.063-.126.376-.126.063v.125l-.126.063-.063.25-.126.063v.125l-.126.063v.125l-.126.063v.125h-.063c-.02.063-.042.126-.063.188a15.12 15.12 0 0 1-.126.064v.124l-.189.126v.125l-.189.125v.126l-.189.125v.126l-.252.187v.126l-.252.188c-.5.692-1.046 1.167-1.637 1.755l-.63.69h-.126l-.315.375h-.126l-.252.314h-.126l-.189.25H35.5l-.126.188h-.126l-.126.189h-.126L34.87 43h-.126c-.02.042-.042.084-.063.125l-.189.063v.063h-.126c-.02.042-.041.084-.063.125h-.125l-.063.125h-.126l-.063.126-.252.063-.063.126-.19.062v.063h-.125v.062h-.126v.063h-.126l-.063.125h-.126v.063h-.126v.063h-.126v.062h-.126l-.063.126-.378.125v.063h-.126v.062l-.378.126v.063h-.189v.062h-.126v.063l-.378.125v.063h-.189v.062h-.126v.063h-.189v.063h-.126v.063h-.188v.062h-.127v.063l-.566.125v.062h-.126v.064l-.441.062v.063h-.19v.063h-.188v.062h-.19v.063h-.251v.062h-.252v.063h-.252v.063h-.252v.062h-.252v.063h-.315v.063h-.315v.063h-.315v.062h-.377v.063l-.882.062v.063l-2.52.126-2.204-.063v-.063h-.567v-.063h-.504l-2.96-.626c-1.5-.536-3.034-1.036-4.283-1.818h-.126v-.062h-.126v-.063h-.126v-.063h-.126l-.063-.125-.378-.125v-.063l-.189-.062a25.298 25.298 0 0 0-.063-.126l-.252-.063v-.063l-.189-.063a25.298 25.298 0 0 1-.063-.125h-.126a16.587 16.587 0 0 1-.063-.125h-.126v-.063l-.189-.063L9.424 43h-.126a26.428 26.428 0 0 0-.126-.187h-.126l-.126-.189h-.126l-.126-.188h-.125l-.19-.25h-.125l-.126-.188h-.063a25.298 25.298 0 0 0-.063-.126H7.85l-.315-.376h-.126a563.06 563.06 0 0 1-.756-.814l-1.07-1.003v-.125l-.379-.314v-.125c-.105-.084-.21-.168-.315-.25v-.127l-.252-.187v-.126l-.189-.125v-.126l-.188-.125v-.125l-.19-.126v-.124l-.125-.064-.063-.188h-.063v-.125l-.126-.063v-.125l-.126-.063v-.125l-.126-.063-.063-.25-.126-.063a71.863 71.863 0 0 1-.063-.188h-.063L3 35.98l-.126-.063v-.125H2.81v-.125h-.063v-.126h-.063v-.125c-.783-1.242-1.293-2.769-1.827-4.262l-.063-.502H.732v-.25H.67v-.25H.606v-.251H.543v-.314H.48l-.062-.627H.354v-.376H.291v-.438H.228l-.062-1.065H.103v-.816c-.134-.483-.138-1.899 0-2.38v-.816h.063l.062-1.065h.063v-.439c.088-.295.163-.717.252-1.002v-.314h.063V20H.67v-.252h.063v-.25h.063v-.251h.063v-.25h.063v-.189h.063v-.188h.063v-.188h.063v-.25h.063v-.189h.063v-.125H1.3l.126-.564h.063v-.126h.063v-.187h.063v-.126h.063v-.188h.063v-.125h.063v-.188h.063l.126-.376h.063v-.125h.063v-.188h.063l.126-.376h.063v-.126h.063l.126-.376.126-.062v-.126h.063v-.126h.063v-.125h.063v-.125L3 14.17l.126-.377h.063l.063-.188.126-.062c.02-.084.042-.167.063-.251h.063c.02-.063.042-.125.063-.188l.126-.063v-.125h.063c.02-.063.042-.126.063-.187l.126-.064v-.125l.189-.126v-.125l.126-.063v-.125l.188-.125v-.126l.19-.125v-.125l.251-.188v-.126l.19-.125V11.1l.125-.064v-.125l.378-.313v-.125l.945-.878.882-.94h.126l.315-.376h.126l.252-.314h.126l.189-.25h.126l.126-.188h.125c.043-.062.085-.126.126-.188h.126c.021-.042.043-.083.063-.125h.126l.126-.188h.126l.063-.126h.126l.063-.125h.126l.063-.125h.126l.063-.126.252-.062.063-.125.19-.064v-.062h.125v-.063H11v-.063h.126l.063-.125h.126v-.062h.126v-.063h.126v-.062h.126l.063-.126h.126v-.063l.378-.125v-.063l.378-.126v-.062h.189v-.063h.126v-.062l.378-.126v-.062h.189v-.063h.125v-.063h.19v-.062h.125v-.063h.19v-.063h.125V4.52l.567-.126v-.062h.126v-.063l.441-.063v-.062h.19V4.08h.188v-.063h.189v-.062l.504-.063V3.83h.252v-.062h.252v-.063h.252v-.063h.315v-.062l.63-.063v-.063h.377v-.062h.441v-.063h.441v-.062h.567v-.063h.882c.485-.134 1.908-.136 2.393 0h.882v.063h.567v.062h.44v.063h.442v.062c.23.022.461.042.693.063v.063l.63.062v.063l.503.063v.062h.252v.063h.252v.063h.252v.062h.189v.063h.189v.063h.189v.062h.252v.063h.189v.063l.315.062v.063c-.067.044-.29.312-.315.376v.313h-.063v.251h-.063v.251h-.063v.25h-.063v.251h-.063v3.385zm5.417 10.404l.19.627h.062v.187h.063v.188h.063v.188h.063l.063.439h.063l.378 1.943v.69h.063v.94c0 .824-.055 1.674-.252 2.318l-.063.627h-.063l-.063.501h-.063c-.02.147-.042.293-.063.44h-.063v.187h-.063v.188h-.063v.188h-.062v.125h-.063v.189h-.063v.125h-.064v.188h-.062l-.063.25h-.063v.126h-.063v.188h-.063l-.063.25h-.063l-.063.252-.126.062-.126.377-.126.061-.063.251h-.063l-.063.188-.126.064v.125h-.063l-.063.188-.126.062v.126l-.19.125v.125l-.188.126v.125l-.315.25v.126l-.63.564-.819.877h-.126c-.084.106-.167.21-.252.314h-.125l-.127.188h-.125l-.127.188h-.125l-.063.125-.19.063v.063h-.125l-.063.125-.19.063v.062a491 491 0 0 1-.251.063l-.063.125-.378.126-.063.125-.252.062v.063a491 491 0 0 1-.252.063v.062h-.189v.063h-.126v.063l-.252.062v.063h-.189v.063h-.126v.062l-.315.063v.063h-.189v.063h-.189v.062h-.188v.064l-.441.062v.062l-.504.064v.062h-.315v.063h-.315v.062H24.1v.063h-.441v.062h-.693c-.688.191-2.313.045-2.897-.125h-.378l-2.142-.564v-.063h-.125v-.063h-.19v-.062h-.125v-.063h-.19v-.063l-.251-.062v-.063h-.126v-.063l-.567-.188-.063-.125h-.126v-.062h-.126v-.063h-.126v-.063h-.126l-.063-.125a491 491 0 0 1-.252-.063l-.063-.125h-.126c-.02-.042-.042-.084-.063-.125h-.126v-.063l-.189-.063a16.772 16.772 0 0 1-.063-.125h-.126l-.126-.188h-.126l-.126-.188h-.126l-.252-.314h-.126c-.356-.376-.714-.751-1.07-1.128l-.378-.313v-.125l-.315-.251v-.125l-.19-.126v-.125a23.809 23.809 0 0 0-.188-.125v-.126l-.126-.062v-.126l-.126-.062v-.125l-.126-.064v-.124l-.126-.064-.063-.25-.126-.062v-.126h-.063v-.125h-.063v-.126h-.063v-.126l-.126-.062-.189-.564h-.063v-.125h-.063c-.02-.084-.042-.167-.063-.251h-.063v-.188h-.063v-.125H9.74v-.189h-.063v-.125h-.063V29.4H9.55v-.188h-.063v-.187h-.063v-.251h-.063v-.189h-.063l-.378-1.943v-.688h-.062c-.085-.304 0-1.535.062-1.756v-.689c.127-.446.177-1.02.315-1.442v-.25h.063v-.25h.063v-.189h.063v-.25h.063v-.189h.063v-.188h.063v-.187h.063v-.126h.063v-.188h.063v-.125h.063v-.188h.063l.063-.252h.063v-.124h.063v-.189h.063l.063-.25h.063v-.126l.126-.062v-.126h.063v-.125h.063v-.126h.063v-.125l.126-.062.063-.251h.063l.063-.188.126-.063v-.125h.063l.063-.188.126-.063v-.125l.189-.126v-.125l.189-.125v-.126l.315-.25v-.125l.756-.69.692-.752h.126l.252-.313h.126l.126-.188h.126l.126-.189h.126l.063-.125.19-.062v-.064h.125l.063-.124.19-.063v-.063a491 491 0 0 1 .251-.063l.063-.125.378-.125v-.063h.126c.02-.042.042-.084.063-.125l.567-.188v-.063h.126v-.063a491 491 0 0 0 .252-.062v-.063h.189v-.063h.126v-.063h.189v-.061h.125v-.064h.19v-.062h.188v-.063h.19v-.063l.44-.063v-.062h.252v-.063h.252v-.063h.315v-.061h.315v-.064h.378v-.062h.44v-.063h.694c.221-.061 1.46-.147 1.763-.062v.062h.693v.063h.44v.062h.379v.064h.315v.061l.567.063v.063h.252v.062c.146.022.294.042.44.063v.063h.19v.063h.188v.062h.19v.064h.125v.061c.232.102.474.077.63.251h-.063c-.097.168-.247.246-.378.377l-.756.752-.692.751-.315.251v.126l-.19.062-.062.125-.315.251-.315.438h-.126l-.756.816h-.63c-.079-.07-1.182-.121-1.385-.063v.063h-.567v.063h-.315v.062h-.315v.062h-.252v.063h-.189v.063h-.252v.063h-.126v.062l-.378.063v.063l-.252.063v.062h-.189v.063h-.126v.062h-.126c-.02.043-.042.085-.063.126l-.378.125c-.02.042-.042.084-.063.125l-.252.063-.126.188h-.125c-.022.041-.042.084-.063.125h-.126l-.19.251c-1.176.844-1.977 2.099-2.582 3.51-.02.147-.042.292-.063.439h-.063v.188h-.063v.25h-.063v.314c-.259.846-.262 2.288 0 3.133l.063.565h.063v.188h.063l.063.438h.063v.126h.063v.188h.063l.063.25h.063l.19.564.125.064.063.25.126.062.063.251c.063.043.126.084.189.125l.063.189h.063v.125l.252.188c1.026 1.419 2.542 2.234 4.409 2.82h.315v.063h.315v.063h.567v.062c.309.086 1.166-.001 1.385-.062h.567v-.063h.315v-.063h.315v-.062h.252v-.063h.189v-.062h.252v-.063h.126v-.063l.378-.063v-.062l.252-.063v-.063l.566-.187.064-.126.251-.062.063-.126h.126v-.063h.126l.126-.187h.126l.063-.126h.126l.19-.25h.125l.567-.627.44-.377v-.125l.253-.188v-.125l.126-.063v-.126c.063-.04.126-.082.189-.125v-.125h.063v-.126l.126-.062c.02-.084.042-.167.063-.25l.126-.064v-.125h.063c.02-.084.042-.167.063-.25h.063v-.188h.063c.02-.084.042-.167.063-.251h.063c.02-.105.042-.21.063-.314h.062l.064-.438h.063v-.188h.063v-.25h.062v-.315h.064v-.312h.063v-.565c.163-.578 0-1.325 0-1.943.147-.104.293-.21.44-.313l.063-.188.756-.627v-.126h.063l.252-.312h.126l.063-.126h.063l.567-.69h.126l.126-.187.126-.063v-.125l.378-.314c.02-.042.042-.083.063-.125h.126l.126-.188.126-.063v-.125h.063l.252-.313h.188z"/></g></g></svg>